<svg width="27" height="22" viewBox="0 0 27 22" fill="none" xmlns="http://www.w3.org/2000/svg">
<path fill-rule="evenodd" clip-rule="evenodd" d="M9.56391 0.0719204C9.31799 0.156635 9.12605 0.323621 9.0336 0.533314C8.97455 0.667212 8.9629 2.19929 8.9629 9.81451V18.9353H10.7677H12.5726V9.81451C12.5726 2.22391 12.5608 0.666365 12.5022 0.530972C12.4126 0.323572 12.1593 0.117218 11.9135 0.0512401C11.6202 -0.0274943 9.80607 -0.0114982 9.56391 0.0719204ZM21.3954 0.0618045C21.1581 0.1374 20.8921 0.404648 20.8263 0.633626C20.7896 0.761245 20.7722 3.72505 20.772 9.87839L20.7717 18.9353H22.6023H24.433V9.83185V0.728306L24.3236 0.509993C24.2578 0.378586 24.131 0.238359 24.0052 0.15788L23.7963 0.0241316L22.6836 0.0150124C21.9742 0.00918209 21.5074 0.0261747 21.3954 0.0618045ZM3.6923 10.1643C3.45437 10.2336 3.23119 10.4202 3.13094 10.6334C3.03992 10.8271 3.03492 11.0458 3.03384 14.8865L3.0327 18.9353H4.86477H6.69684L6.68251 14.8616C6.66936 11.1241 6.66085 10.775 6.57978 10.6318C6.45984 10.4201 6.2149 10.2293 5.98331 10.1671C5.75905 10.1069 3.89717 10.1047 3.6923 10.1643ZM15.4941 10.186C15.2641 10.2673 15.0736 10.4265 14.9526 10.6383C14.8752 10.774 14.8673 11.1635 14.8673 14.8491V18.9104L16.685 18.9235L18.5028 18.9366L18.5016 14.8871C18.5006 11.0167 18.4962 10.8284 18.4026 10.6292C18.341 10.4981 18.2232 10.3685 18.0853 10.2803L17.8661 10.14L16.7792 10.1279C15.948 10.1187 15.6458 10.1323 15.4941 10.186ZM0.729573 19.9576C0.42012 20.1368 0.29935 20.4042 0.300794 20.907C0.302238 21.411 0.413416 21.6654 0.717248 21.8597L0.936717 22H13.5008H26.0648L26.2843 21.8597C26.5882 21.6654 26.6993 21.411 26.7008 20.907C26.7022 20.3999 26.5809 20.1339 26.267 19.9562L26.0482 19.8323L13.4962 19.8328L0.944246 19.8333L0.729573 19.9576Z" fill="white"/>
</svg>
