<svg width="27" height="26" viewBox="0 0 27 26" fill="none" xmlns="http://www.w3.org/2000/svg">
<g clip-path="url(#clip0_549_31871)">
<path d="M2.78516 15.7852H3.04688V22.4023H2.78516C1.80121 22.4023 1 21.6011 1 20.6172V14.5234C1 7.66177 6.63324 2.07422 13.5 2.07422C20.3668 2.07422 26 7.66177 26 14.5234V20.6172C26 21.6011 25.1988 22.4023 24.2148 22.4023H23.9531V15.7852H24.2148C24.414 15.7852 24.6106 15.8258 24.8087 15.8964L25.4766 16.1346V15.4255V14.5234C25.4766 7.94388 20.0738 2.59766 13.5 2.59766C6.92621 2.59766 1.52344 7.94388 1.52344 14.5234V15.4255V16.1346L2.19135 15.8964C2.38944 15.8258 2.58601 15.7852 2.78516 15.7852Z" stroke="white"/>
<path d="M6.59375 14.2617H7.35547C7.5 14.2617 7.61719 14.3789 7.61719 14.5234V23.6641C7.61719 23.8086 7.5 23.9258 7.35547 23.9258H6.59375C6.0285 23.9258 5.57031 23.4676 5.57031 22.9023V15.2852C5.57031 14.7199 6.0285 14.2617 6.59375 14.2617Z" stroke="white"/>
<path d="M19.2617 14.2617H20.0234C20.5887 14.2617 21.0469 14.7199 21.0469 15.2852V22.9023C21.0469 23.4676 20.5887 23.9258 20.0234 23.9258H19.2617C19.1172 23.9258 19 23.8086 19 23.6641V14.5234C19 14.3789 19.1172 14.2617 19.2617 14.2617Z" stroke="white"/>
</g>
<defs>
<clipPath id="clip0_549_31871">
<rect width="26" height="26" fill="white" transform="translate(0.5)"/>
</clipPath>
</defs>
</svg>
