<svg width="27" height="26" viewBox="0 0 27 26" fill="none" xmlns="http://www.w3.org/2000/svg">
<path d="M20.3805 23.2252V19.1012L25.832 14.3286C25.9826 14.1969 25.9977 13.9683 25.866 13.8177L23.4008 11.002C23.2691 10.8514 23.0405 10.8363 22.89 10.968L20.3808 13.165V6.87352C20.3808 6.77738 20.3426 6.68525 20.2745 6.61739L13.7629 0.119228C13.7612 0.117579 13.7594 0.116401 13.7577 0.114987C13.6764 0.0263904 13.5558 -0.0148446 13.4375 0.0049482L13.4073 0.00188503C13.3953 0.000706889 13.3831 0 13.371 0H3.87828C2.34646 0.00188503 1.10517 1.24294 1.10352 2.77476V23.2252C1.10517 24.757 2.34646 25.9983 3.87828 26H17.6058C19.1373 25.9983 20.3786 24.757 20.3805 23.2252ZM23.0945 11.751L25.083 14.0223L17.5546 20.613L15.0539 20.7558L15.5633 18.3442L23.0945 11.751ZM13.8553 1.23446L19.1569 6.52502H15.9062C14.774 6.52361 13.8564 5.60607 13.8553 4.47411V1.23446ZM1.82737 23.2252V2.77476C1.82854 1.64257 2.74608 0.725265 3.87828 0.723851H13.1316V4.47411C13.1335 6.0057 14.3748 7.24699 15.9064 7.24888H19.6567V13.7986L14.9959 17.879C14.937 17.9306 14.8963 17.9999 14.8802 18.0767L14.2478 21.0694C14.2254 21.1762 14.2521 21.2874 14.3209 21.3722C14.3897 21.4568 14.4929 21.5061 14.602 21.5061C14.6088 21.5061 14.6156 21.5061 14.6227 21.5056L17.72 21.3286C17.8006 21.3241 17.8772 21.2928 17.938 21.2396L19.6567 19.7351V23.2252C19.6553 24.3574 18.738 25.2749 17.6058 25.2761H3.87828C2.74608 25.2749 1.82854 24.3574 1.82737 23.2252Z" fill="white"/>
<path d="M12.7297 17.7773H4.79161C4.5918 17.7773 4.42969 17.9392 4.42969 18.1393C4.42969 18.3391 4.5918 18.5012 4.79161 18.5012H12.7297C12.9297 18.5012 13.0916 18.3391 13.0916 18.1393C13.0916 17.9392 12.9297 17.7773 12.7297 17.7773Z" fill="white"/>
<path d="M12.7297 21.1426H4.79161C4.5918 21.1426 4.42969 21.3047 4.42969 21.5045C4.42969 21.7043 4.5918 21.8664 4.79161 21.8664H12.7297C12.9297 21.8664 13.0916 21.7043 13.0916 21.5045C13.0916 21.3047 12.9297 21.1426 12.7297 21.1426Z" fill="white"/>
<path d="M5.95468 15.376C6.7954 15.376 7.47943 14.7796 7.47943 14.0468V11.4542L11.6465 9.81136V11.551C11.4 11.4195 11.1248 11.3512 10.8456 11.3524C10.0047 11.3524 9.32063 11.9487 9.32063 12.6815C9.32063 13.4146 10.0047 14.0107 10.8456 14.0107C11.6863 14.0107 12.3704 13.4146 12.3704 12.6815V7.36671C12.3704 7.24701 12.3112 7.13509 12.212 7.0677C12.1131 7.00031 11.9872 6.98617 11.8758 7.03L6.98484 8.95862C6.84653 9.01305 6.75558 9.14665 6.75558 9.29533V12.9165C6.50911 12.7848 6.23389 12.7164 5.95468 12.7176C5.11372 12.7176 4.42969 13.3137 4.42969 14.0468C4.42969 14.7798 5.11372 15.376 5.95468 15.376ZM10.8456 13.2869C10.4111 13.2869 10.0445 13.0095 10.0445 12.6815C10.0445 12.3538 10.4114 12.0762 10.8456 12.0762C11.2796 12.0762 11.6465 12.3538 11.6465 12.6815C11.6465 13.0095 11.2796 13.2869 10.8456 13.2869ZM7.47966 9.54109L11.6468 7.89829V9.03331L7.47943 10.6761L7.47966 9.54109ZM5.95468 13.441C6.38917 13.441 6.75581 13.7185 6.75581 14.0465C6.75581 14.3745 6.38894 14.6519 5.95468 14.6519C5.52065 14.6519 5.15377 14.3743 5.15377 14.0465C5.15377 13.7185 5.52041 13.4412 5.95468 13.4412V13.441Z" fill="white"/>
</svg>
