<svg width="27" height="26" viewBox="0 0 27 26" fill="none" xmlns="http://www.w3.org/2000/svg">
<g clip-path="url(#clip0_549_31913)">
<path d="M10.5587 19.7646H4.61753C4.29265 19.7646 4.0293 20.028 4.0293 20.3529C4.0293 20.6778 4.29265 20.9411 4.61753 20.9411H10.5587C10.8836 20.9411 11.1469 20.6778 11.1469 20.3529C11.1469 20.028 10.8836 19.7646 10.5587 19.7646Z" fill="white"/>
<path d="M19.4415 19.7646H13.5003C13.1755 19.7646 12.9121 20.028 12.9121 20.3529C12.9121 20.6778 13.1755 20.9411 13.5003 20.9411H19.4415C19.7663 20.9411 20.0298 20.6778 20.0298 20.3529C20.0298 20.028 19.7663 19.7646 19.4415 19.7646Z" fill="white"/>
<path d="M19.4411 5.05859H4.61753C4.29265 5.05859 4.0293 5.32195 4.0293 5.64683C4.0293 5.97171 4.29265 6.23506 4.61753 6.23506H19.4411C19.7659 6.23506 20.0293 5.97171 20.0293 5.64683C20.0293 5.32195 19.7659 5.05859 19.4411 5.05859Z" fill="white"/>
<path d="M19.4415 16.8232H13.5003C13.1755 16.8232 12.9121 17.0866 12.9121 17.4115C12.9121 17.7364 13.1755 17.9997 13.5003 17.9997H19.4415C19.7663 17.9997 20.0298 17.7364 20.0298 17.4115C20.0298 17.0866 19.7663 16.8232 19.4415 16.8232Z" fill="white"/>
<path d="M10.5587 16.8232H4.61753C4.29265 16.8232 4.0293 17.0866 4.0293 17.4115C4.0293 17.7364 4.29265 17.9997 4.61753 17.9997H10.5587C10.8836 17.9997 11.1469 17.7364 11.1469 17.4115C11.1469 17.0866 10.8836 16.8232 10.5587 16.8232Z" fill="white"/>
<path d="M10.5587 8H4.61753C4.29265 8 4.0293 8.26335 4.0293 8.58824V14.5294C4.0293 14.8543 4.29265 15.1176 4.61753 15.1176H10.5587C10.8836 15.1176 11.1469 14.8543 11.1469 14.5294V8.58824C11.1469 8.26335 10.8836 8 10.5587 8ZM9.97047 13.9412H5.20577V9.17647H9.97047V13.9412Z" fill="white"/>
<path d="M25.3235 4.47047H23.5588V2.70577C23.5588 2.05706 23.0311 1.5293 22.3824 1.5293H1.67647C1.02776 1.5293 0.5 2.05706 0.5 2.70577V21.5293C0.5 23.1511 1.81941 24.4705 3.44118 24.4705H23.5588C25.1806 24.4705 26.5 23.1511 26.5 21.5293V5.64694C26.5 4.99824 25.9722 4.47047 25.3235 4.47047ZM25.3235 21.5293C25.3235 22.5024 24.5319 23.294 23.5588 23.294H3.44118C2.46812 23.294 1.67647 22.5024 1.67647 21.5293V2.70577H22.3824V20.6469C22.3824 21.4578 23.0421 22.1175 23.8529 22.1175C24.1778 22.1175 24.4412 21.8542 24.4412 21.5293C24.4412 21.2044 24.1778 20.9411 23.8529 20.9411C23.6908 20.9411 23.5588 20.8091 23.5588 20.6469V5.64694H25.3235V21.5293Z" fill="white"/>
</g>
<defs>
<clipPath id="clip0_549_31913">
<rect width="26" height="26" fill="white" transform="translate(0.5)"/>
</clipPath>
</defs>
</svg>
