<svg width="31" height="31" viewBox="0 0 31 31" fill="none" xmlns="http://www.w3.org/2000/svg">
<g clip-path="url(#clip0_549_31886)">
<path d="M5.81154 23.6892L8.86065 28.9707C9.51862 30.1116 10.9987 30.534 12.1692 29.8574C13.3274 29.1881 13.7254 27.7082 13.0554 26.5491L11.239 23.4025L12.812 22.4943C13.1015 22.3269 13.2009 21.9567 13.0337 21.6672L12.2463 20.3035C12.3402 20.2853 12.9575 20.1642 23.8434 18.0287C25.1891 17.9557 25.9954 16.4838 25.3157 15.3072L23.3034 11.822L24.5894 9.87431C24.7157 9.68273 24.7232 9.43652 24.6085 9.23785L23.3976 7.14047C23.2829 6.9418 23.065 6.82544 22.8368 6.83892L20.5074 6.9787L18.2736 3.10938C17.95 2.54884 17.3703 2.20945 16.7232 2.20141C16.7154 2.20117 16.7079 2.20117 16.7 2.20117C16.0747 2.20117 15.5071 2.51242 15.1708 3.03866L7.26136 13.1145L2.11937 16.0832C0.0969599 17.2504 -0.603586 19.8449 0.56809 21.8728C1.63854 23.727 3.89533 24.4564 5.81154 23.6892ZM12.007 27.1548C12.3414 27.7333 12.1434 28.4736 11.5633 28.8087C10.9812 29.1452 10.24 28.9385 9.90934 28.3655L6.88199 23.1213L8.97938 21.9104C12.4831 27.9797 11.9507 27.0576 12.007 27.1548ZM10.6335 22.3536L10.0281 21.3049L11.0768 20.6994L11.6822 21.7481L10.6335 22.3536ZM22.536 8.06996L23.3727 9.5193L22.6265 10.6494L21.1843 8.15109L22.536 8.06996ZM16.1835 3.70255C16.346 3.43671 16.6038 3.40927 16.7083 3.41211C16.8117 3.41329 17.0692 3.44546 17.2246 3.71461L24.267 15.9127C24.4964 16.3098 24.2176 16.8091 23.7575 16.8204C23.675 16.8223 23.6369 16.8372 23.4255 16.8767L15.9761 3.97382C16.1324 3.77279 16.1525 3.7534 16.1835 3.70255ZM15.1703 5.00028L22.1694 17.1231L11.6063 19.195L8.39448 13.632L15.1703 5.00028ZM1.61678 21.2673C1.35094 20.8073 1.21045 20.2851 1.21045 19.7567C1.21045 18.6768 1.79085 17.6711 2.72484 17.1319L7.44394 14.4073L10.4713 19.6507L5.75218 22.3756C4.30639 23.21 2.45143 22.7128 1.61678 21.2673Z" fill="white"/>
<path d="M30.0991 3.49652L26.7252 5.37395C26.4331 5.53667 26.3279 5.90539 26.4906 6.19748C26.6529 6.48933 27.0213 6.59506 27.3141 6.4321L30.6877 4.55467C30.9801 4.39195 31.0851 4.02323 30.9224 3.73114C30.7599 3.43881 30.3912 3.3338 30.0991 3.49652Z" fill="white"/>
<path d="M29.7463 9.76669L27.407 9.13994C27.0839 9.05337 26.7519 9.24495 26.6653 9.56802C26.5787 9.8911 26.7706 10.2229 27.0936 10.3095L29.4332 10.9362C29.7582 11.0235 30.0886 10.8289 30.1747 10.5082C30.2612 10.1851 30.0694 9.85302 29.7463 9.76669Z" fill="white"/>
<path d="M23.867 1.29654L23.2395 3.63611C23.153 3.95918 23.3446 4.29101 23.6676 4.3778C23.9905 4.46413 24.3225 4.27303 24.4093 3.94972L25.0366 1.61015C25.1231 1.28708 24.9315 0.955014 24.6085 0.868451C24.2856 0.781888 23.9536 0.973462 23.867 1.29654Z" fill="white"/>
</g>
<defs>
<clipPath id="clip0_549_31886">
<rect width="31" height="31" fill="white"/>
</clipPath>
</defs>
</svg>
